<svg xmlns="http://www.w3.org/2000/svg" width="1600" height="820" viewBox="0 0 1600 820" role="img" aria-labelledby="title desc">
    <title id="title">OpenDeepMind</title><desc id="desc">Qualify foundations with First Philosophy. Reconstruct with First Principles. Compete, falsify, act, and remain revisable.</desc>
    <defs>
      <linearGradient id="hero-en-bg" x1="0" y1="0" x2="1" y2="1"><stop offset="0" stop-color="#f8fbff"/><stop offset=".55" stop-color="#edf4ff"/><stop offset="1" stop-color="#e9f8f5"/></linearGradient>
      <linearGradient id="hero-en-cyan" x1="0" y1="0" x2="1" y2="1"><stop offset="0" stop-color="#1178ff"/><stop offset="1" stop-color="#0b5ed7"/></linearGradient>
      <linearGradient id="hero-en-gold" x1="0" y1="0" x2="1" y2="1"><stop offset="0" stop-color="#ffe29a"/><stop offset="1" stop-color="#e9891a"/></linearGradient>
      <linearGradient id="hero-en-violet" x1="0" y1="0" x2="1" y2="1"><stop offset="0" stop-color="#e7c8ff"/><stop offset="1" stop-color="#6f48cf"/></linearGradient>
      <linearGradient id="hero-en-mint" x1="0" y1="0" x2="1" y2="1"><stop offset="0" stop-color="#b5ffe7"/><stop offset="1" stop-color="#008e73"/></linearGradient>
      <radialGradient id="hero-en-halo"><stop offset="0" stop-color="#1178ff" stop-opacity=".32"/><stop offset="1" stop-color="#1178ff" stop-opacity="0"/></radialGradient>
      <pattern id="hero-en-grid" width="44" height="44" patternUnits="userSpaceOnUse"><path d="M44 0H0V44" fill="none" stroke="#8ba7c7" stroke-opacity=".08" stroke-width="1"/></pattern>
      <filter id="hero-en-glow" x="-70%" y="-70%" width="240%" height="240%"><feGaussianBlur stdDeviation="7" result="b"/><feMerge><feMergeNode in="b"/><feMergeNode in="SourceGraphic"/></feMerge></filter>
      <filter id="hero-en-shadow" x="-40%" y="-40%" width="180%" height="190%"><feDropShadow dx="0" dy="12" stdDeviation="12" flood-color="#31557d" flood-opacity=".25"/></filter>
      <marker id="hero-en-arrow" viewBox="0 0 10 10" refX="9" refY="5" markerWidth="8" markerHeight="8" orient="auto"><path d="M0 0L10 5L0 10Z" fill="#1178ff"/></marker>
      <clipPath id="hero-en-sceneclip"><rect x="870" y="0" width="730" height="480" rx="28"/></clipPath>
      <linearGradient id="hero-en-fade" x1="0" x2="1"><stop offset="0" stop-color="#f8fbff" stop-opacity="1"/><stop offset=".35" stop-color="#f8fbff" stop-opacity=".55"/><stop offset="1" stop-color="#f8fbff" stop-opacity="0"/></linearGradient>
      
      <style>
        .title{font:700 50px Inter,Segoe UI,Arial,sans-serif;fill:#0c2b59;letter-spacing:-.5px}
        .subtitle{font:400 21px Inter,Segoe UI,Arial,sans-serif;fill:#526b8c}
        .h2{font:700 29px Inter,Segoe UI,Arial,sans-serif;fill:#0c2b59}
        .h3{font:700 21px Inter,Segoe UI,Arial,sans-serif;fill:#0c2b59}
        .body{font:400 18px Inter,Segoe UI,Arial,sans-serif;fill:#526b8c}
        .small{font:500 15px Inter,Segoe UI,Arial,sans-serif;fill:#526b8c}
        .tiny{font:700 12px Inter,Segoe UI,Arial,sans-serif;fill:#8295ad;letter-spacing:.8px}
        .formula{font:500 18px JetBrains Mono,DejaVu Sans Mono,monospace;fill:#0c2b59}
        .formula2{font:600 21px STIX Two Text,Georgia,serif;fill:#0c2b59}
        .card{fill:#ffffff;fill-opacity:.92;stroke:#b9cbe3;stroke-width:1.2}
        .card2{fill:#f8fbff;fill-opacity:.92;stroke:#b9cbe3;stroke-width:1.1}
      </style>
    </defs>
    <rect width="1600" height="820" rx="30" fill="url(#hero-en-bg)"/>
    <rect width="1600" height="820" rx="30" fill="url(#hero-en-grid)"/>
    
    <circle cx="1320" cy="120" r="330" fill="url(#hero-en-halo)"/>
    <circle cx="210" cy="760" r="330" fill="url(#hero-en-halo)" opacity=".35"/>
    <rect x="900" y="22" width="650" height="455" rx="28" fill="#f9fcff" stroke="#b9cbe3"/><circle cx="1430" cy="95" r="34" fill="#1178ff" opacity=".10"/><circle cx="1430" cy="95" r="12" fill="#e9891a" opacity=".40"/><path d="M920 390 L1030 285 L1100 335 L1175 240 L1250 330 L1340 212 L1518 390" fill="#dfeaff" stroke="#0b5ed7" stroke-width="3" opacity=".92"/><path d="M920 425 L1080 325 L1160 375 L1270 295 L1360 355 L1518 270 V455 H920Z" fill="#e8f5f1" stroke="#008e73" stroke-width="2" opacity=".88"/><path d="M900 453 C1060 420 1230 445 1550 395" fill="none" stroke="#0b5ed7" stroke-width="4" opacity=".24"/><circle cx="1258" cy="349" r="12" fill="#385173"/><path d="M1258 362V421M1238 387L1258 376L1278 388M1258 421L1242 449M1258 421L1272 449" stroke="#385173" stroke-width="8" stroke-linecap="round"/><text x="84" y="62" class="tiny">AN OPEN, AUDITABLE, FALSIFIABLE DEEP-REASONING SYSTEM</text><text x="84" y="118" class="title">OpenDeepMind</text>
    <text x="84" y="158" class="subtitle">Qualify foundations with First Philosophy. Reconstruct with First Principles. Compete, falsify, act, and remain revisable.</text><rect x="84" y="190" width="159.6" height="34" rx="17" fill="#1178ff" opacity=".92"/><text x="163.8" y="213" text-anchor="middle" style="font:700 14px Inter,Segoe UI,Arial,sans-serif;fill:#ffffff">First Philosophy</text><rect x="255.6" y="190" width="159.6" height="34" rx="17" fill="#008e73" opacity=".92"/><text x="335.4" y="213" text-anchor="middle" style="font:700 14px Inter,Segoe UI,Arial,sans-serif;fill:#ffffff">First Principles</text><rect x="427.2" y="190" width="159.6" height="34" rx="17" fill="#e9891a" opacity=".92"/><text x="507.0" y="213" text-anchor="middle" style="font:700 14px Inter,Segoe UI,Arial,sans-serif;fill:#ffffff">Systems Thinking</text><rect x="598.8" y="190" width="182.4" height="34" rx="17" fill="#6f48cf" opacity=".92"/><text x="690.0" y="213" text-anchor="middle" style="font:700 14px Inter,Segoe UI,Arial,sans-serif;fill:#ffffff">Scientific Modeling</text><rect x="793.1999999999999" y="190" width="167.2" height="34" rx="17" fill="#d7434e" opacity=".92"/><text x="876.8" y="213" text-anchor="middle" style="font:700 14px Inter,Segoe UI,Arial,sans-serif;fill:#ffffff">Creative Practice</text><rect x="972.3999999999999" y="190" width="152.0" height="34" rx="17" fill="#0b5ed7" opacity=".92"/><text x="1048.3999999999999" y="213" text-anchor="middle" style="font:700 14px Inter,Segoe UI,Arial,sans-serif;fill:#ffffff">AI Augmentation</text><rect x="84" y="268" width="780" height="78" rx="18" class="card"/><rect x="100" y="283" width="150" height="48" rx="14" fill="#1178ff" opacity=".16" stroke="#1178ff" stroke-opacity=".6"/><text x="175" y="313" text-anchor="middle" class="tiny" fill="#1178ff">FOUNDATION SET</text><text x="276" y="316" class="formula">F = {D, O, L, C, A, E, V, U}</text><rect x="84" y="362" width="780" height="78" rx="18" class="card"/><rect x="100" y="377" width="150" height="48" rx="14" fill="#008e73" opacity=".16" stroke="#008e73" stroke-opacity=".6"/><text x="175" y="407" text-anchor="middle" class="tiny" fill="#008e73">MODEL COMPETITION</text><text x="276" y="410" class="formula">M* = arg max [Evidence(M) − Bias(M) − λ·Complexity(M)]</text><rect x="84" y="456" width="780" height="78" rx="18" class="card"/><rect x="100" y="471" width="150" height="48" rx="14" fill="#e9891a" opacity=".16" stroke="#e9891a" stroke-opacity=".6"/><text x="175" y="501" text-anchor="middle" class="tiny" fill="#e9891a">DECISION OBJECTIVE</text><text x="276" y="504" class="formula">a* = arg min [Cost(a) + Risk(a) − Value(a)]</text><rect x="84" y="615" width="260" height="142" rx="22" class="card"/><circle cx="128" cy="659" r="22" fill="#1178ff" opacity=".16" stroke="#1178ff"/><path d="M107.2,659 Q128,644.05 148.8,659 Q128,673.95 107.2,659Z" fill="none" stroke="#1178ff" stroke-width="4"/><circle cx="128" cy="659" r="5.46" fill="#e9891a"/><circle cx="128" cy="659" r="1.95" fill="#f8fbff"/><text x="162" y="654" class="h3">First Philosophy</text><text x="162" y="682" class="small">Qualify foundations</text><text x="108" y="726" class="tiny">Φ8 → P9 → M₁…Mₙ → Q → Δ</text><line x1="349" y1="685" x2="367" y2="685" stroke="#1178ff" stroke-width="3" marker-end="url(#hero-en-arrow)"/><rect x="374" y="615" width="260" height="142" rx="22" class="card"/><circle cx="418" cy="659" r="22" fill="#008e73" opacity=".16" stroke="#008e73"/><polygon points="418,644 430.9,651.5 430.9,666.5 418,674 405.1,666.5 405.1,651.5" fill="none" stroke="#008e73" stroke-width="4"/><path d="M418,644V674M405.1,651.5L418,659L430.9,651.5" fill="none" stroke="#008e73" stroke-width="3"/><text x="452" y="654" class="h3">First Principles</text><text x="452" y="682" class="small">Decompose &amp; rebuild</text><text x="398" y="726" class="tiny">Φ8 → P9 → M₁…Mₙ → Q → Δ</text><line x1="639" y1="685" x2="657" y2="685" stroke="#1178ff" stroke-width="3" marker-end="url(#hero-en-arrow)"/><rect x="664" y="615" width="260" height="142" rx="22" class="card"/><circle cx="708" cy="659" r="22" fill="#e9891a" opacity=".16" stroke="#e9891a"/><line x1="708" y1="645" x2="694.5" y2="669.75" stroke="#e9891a" stroke-width="3"/><line x1="694.5" y1="669.75" x2="721.5" y2="669.75" stroke="#e9891a" stroke-width="3"/><line x1="721.5" y1="669.75" x2="708" y2="645" stroke="#e9891a" stroke-width="3"/><circle cx="708" cy="645" r="10" fill="#ffffff" stroke="#e9891a" stroke-width="4"/><circle cx="694.5" cy="669.75" r="10" fill="#ffffff" stroke="#e9891a" stroke-width="4"/><circle cx="721.5" cy="669.75" r="10" fill="#ffffff" stroke="#e9891a" stroke-width="4"/><text x="742" y="654" class="h3">Competing Models</text><text x="742" y="682" class="small">Generate alternatives</text><text x="688" y="726" class="tiny">Φ8 → P9 → M₁…Mₙ → Q → Δ</text><line x1="929" y1="685" x2="947" y2="685" stroke="#1178ff" stroke-width="3" marker-end="url(#hero-en-arrow)"/><rect x="954" y="615" width="260" height="142" rx="22" class="card"/><circle cx="998" cy="659" r="22" fill="#6f48cf" opacity=".16" stroke="#6f48cf"/><path d="M998,643 L1010.8,650.2 V661.4 Q1006.8,671.8 998,675 Q989.2,671.8 985.2,661.4 V650.2Z" fill="none" stroke="#6f48cf" stroke-width="4"/><path d="M993.2,659 l12,14 l28,-34" fill="none" stroke="#6f48cf" stroke-width="4" stroke-linecap="round" stroke-linejoin="round"/><text x="1032" y="654" class="h3">Quality Gate</text><text x="1032" y="682" class="small">Block &amp; score</text><text x="978" y="726" class="tiny">Φ8 → P9 → M₁…Mₙ → Q → Δ</text><line x1="1219" y1="685" x2="1237" y2="685" stroke="#1178ff" stroke-width="3" marker-end="url(#hero-en-arrow)"/><rect x="1244" y="615" width="260" height="142" rx="22" class="card"/><circle cx="1288" cy="659" r="22" fill="#d7434e" opacity=".16" stroke="#d7434e"/><path d="M1288,642 C1298.2,654.75 1295.65,663.25 1288,668.35 C1280.35,663.25 1277.8,654.75 1288,642Z" fill="none" stroke="#d7434e" stroke-width="4"/><circle cx="1288" cy="655.94" r="3.06" fill="#d7434e"/><path d="M1285.96,668.35 L1288,676 L1290.04,668.35" fill="none" stroke="#e9891a" stroke-width="4"/><text x="1322" y="654" class="h3">Action &amp; Iteration</text><text x="1322" y="682" class="small">Create value &amp; learn</text><text x="1268" y="726" class="tiny">Φ8 → P9 → M₁…Mₙ → Q → Δ</text></svg>